<svg width="100" height="100" viewBox="0 0 100 100" fill="none" xmlns="http://www.w3.org/2000/svg">
<g clip-path="url(#clip0_13_65)">
<path d="M86.0709 52.2579C83.6353 60.0807 79.686 67.0205 74.7177 73.3718C72.0477 76.7851 69.1319 80.0114 66.2436 83.2476C61.8261 88.1972 56.7746 92.4631 51.5788 96.5627C50.662 97.2861 49.7014 97.3207 48.8338 96.5737C45.3234 93.5516 41.7897 90.5538 38.3588 87.4431C36.2463 85.5277 34.1791 83.5327 32.3148 81.38C29.4579 78.081 26.6413 74.725 24.0935 71.1872C21.8838 68.1188 19.8896 64.8602 18.1253 61.5142C15.3915 56.3295 13.4621 50.8408 12.8706 44.9411C12.1794 38.0459 13.1074 31.427 16.0439 25.1209C17.6267 21.7221 19.6471 18.6268 22.1438 15.8105C25.1971 12.3663 28.7722 9.65041 32.8232 7.50316C36.909 5.3374 41.2381 4.00835 45.8293 3.50727C53.0955 2.71422 60.065 3.78399 66.6412 6.9989C69.7322 8.51 72.5669 10.4274 75.1749 12.7228C78.8902 15.9929 81.7629 19.8787 83.9607 24.2512C85.6679 27.6476 86.9204 31.254 87.2821 35.0676C87.554 37.9347 87.7824 40.838 87.6292 43.7038C87.4957 46.2001 86.8038 48.6669 86.3516 51.1455C86.2878 51.4954 86.1837 51.838 86.0709 52.2579ZM22.262 37.6034C22.3247 40.1956 22.1239 42.826 22.493 45.3738C24.7815 61.1726 40.9061 71.9746 56.4578 68.2352C71.0985 64.7149 80.174 51.2248 77.9446 36.2965C75.7264 21.4436 61.2573 10.7458 46.3649 12.9479C33.561 14.8412 23.953 24.6042 22.262 37.6034Z" fill="#192959"/>
<path d="M22.2678 37.5157C23.953 24.6042 33.561 14.8412 46.3649 12.9479C61.2573 10.7458 75.7264 21.4436 77.9446 36.2965C80.174 51.2248 71.0985 64.7149 56.4578 68.2352C40.9061 71.9746 24.7815 61.1727 22.493 45.3738C22.1239 42.826 22.3247 40.1956 22.2678 37.5157ZM34.5702 51.9676C34.5706 52.9436 34.5494 53.9201 34.576 54.8953C34.6239 56.6477 35.931 57.9542 37.6881 58.0016C38.7283 58.0297 39.7705 58.0288 40.8108 58.0019C42.6188 57.9553 43.9035 56.6433 43.941 54.8148C43.9616 53.8068 43.9451 52.798 44.1272 51.7675C48.2332 51.7749 52.3393 51.7822 56.4452 51.9676C56.4456 52.9436 56.4244 53.9201 56.451 54.8953C56.4989 56.6477 57.806 57.9542 59.563 58.0016C60.6033 58.0297 61.6455 58.0288 62.6858 58.0019C64.4938 57.9553 65.7785 56.6433 65.816 54.8148C65.8366 53.8068 65.8201 52.798 65.997 51.7677C66.2571 51.7643 66.5173 51.7593 66.7775 51.7579C68.4512 51.749 68.9424 51.2703 68.9442 49.6254C68.9474 46.7306 68.9578 43.8357 68.9401 40.941C68.9281 38.9735 68.0448 37.4869 66.2641 36.6466C65.6429 36.3534 65.4134 35.9449 65.2683 35.351C64.6205 32.6992 63.9614 30.0499 63.2885 27.4043C62.6756 24.9943 60.957 23.64 58.4957 23.636C52.9663 23.6271 47.4369 23.6275 41.9075 23.6358C39.4373 23.6395 37.716 24.9883 37.1047 27.3909C36.4155 30.0993 35.7679 32.8186 35.0424 35.5171C34.9356 35.9143 34.5695 36.3551 34.2032 36.5503C32.3935 37.5148 31.4486 38.9685 31.4464 41.0229C31.4436 43.6575 31.4455 46.2921 31.4455 48.9267C31.4454 51.5055 31.6439 51.7106 34.1815 51.7611C34.3112 51.7637 34.4407 51.7797 34.5702 51.9676Z" fill="#E6E9EE"/>
<path d="M56.4453 51.7895C52.3393 51.7822 48.2332 51.7749 43.9453 51.7663C40.699 51.7732 37.6346 51.7814 34.5703 51.7895C34.4407 51.7797 34.3112 51.7637 34.1814 51.7611C31.6438 51.7106 31.4454 51.5055 31.4454 48.9267C31.4455 46.2921 31.4435 43.6575 31.4464 41.0229C31.4486 38.9685 32.3935 37.5148 34.2032 36.5503C34.5695 36.3551 34.9356 35.9143 35.0424 35.5171C35.7679 32.8186 36.4155 30.0993 37.1047 27.3908C37.716 24.9883 39.4373 23.6395 41.9075 23.6358C47.4369 23.6275 52.9663 23.6271 58.4957 23.636C60.957 23.64 62.6755 24.9943 63.2885 27.4043C63.9614 30.0499 64.6205 32.6992 65.2683 35.351C65.4134 35.9449 65.6429 36.3534 66.2641 36.6465C68.0448 37.4869 68.928 38.9735 68.9401 40.941C68.9577 43.8357 68.9474 46.7305 68.9442 49.6254C68.9423 51.2703 68.4512 51.749 66.7775 51.7579C66.5173 51.7593 66.2571 51.7643 65.8176 51.7664C62.574 51.7732 59.5096 51.7814 56.4453 51.7895ZM58.8864 36.1328C59.9555 36.1328 61.0246 36.1328 62.1255 36.1328C62.1255 35.9227 62.1511 35.7905 62.1217 35.672C61.4811 33.0871 60.8502 30.4996 60.1802 27.9223C59.9482 27.0302 59.2555 26.7521 58.3829 26.7535C52.9192 26.7624 47.4555 26.7542 41.9918 26.7612C40.8792 26.7626 40.3925 27.1382 40.1124 28.214C39.7359 29.6599 39.392 31.1142 39.0325 32.5645C38.7467 33.7175 38.4584 34.87 38.1438 36.1328C45.105 36.1328 51.898 36.1328 58.8864 36.1328ZM39.2657 45.5055C40.2374 45.5065 41.2094 45.5229 42.1807 45.5043C43.2474 45.4839 43.9264 44.872 43.9376 43.9621C43.9489 43.0504 43.2696 42.4128 42.2158 42.3868C41.3418 42.3652 40.4668 42.3744 39.5923 42.3835C38.5053 42.3948 37.8613 42.853 37.7191 43.6969C37.5793 44.5256 38.0534 45.145 39.2657 45.5055ZM62.5926 43.4228C62.2817 42.6622 61.6892 42.3698 60.8977 42.3795C59.9899 42.3906 59.0816 42.3652 58.1742 42.3869C57.1195 42.4122 56.4399 43.0514 56.4519 43.964C56.4638 44.8737 57.1441 45.483 58.2128 45.5046C59.1203 45.523 60.0288 45.5256 60.9362 45.5042C62.168 45.4752 62.6952 44.8635 62.5926 43.4228Z" fill="#FCB860"/>
<path d="M34.5703 51.8786C37.6347 51.7814 40.699 51.7732 43.8543 51.7773C43.9451 52.798 43.9616 53.8068 43.941 54.8148C43.9035 56.6433 42.6187 57.9553 40.8108 58.0019C39.7705 58.0288 38.7283 58.0297 37.688 58.0016C35.931 57.9542 34.6239 56.6477 34.576 54.8953C34.5494 53.9201 34.5706 52.9436 34.5703 51.8786Z" fill="#575E6A"/>
<path d="M56.4453 51.8786C59.5097 51.7814 62.574 51.7732 65.7293 51.7773C65.8201 52.798 65.8366 53.8068 65.8159 54.8148C65.7785 56.6433 64.4937 57.9553 62.6858 58.0019C61.6455 58.0288 60.6033 58.0297 59.563 58.0016C57.806 57.9542 56.4989 56.6477 56.451 54.8953C56.4244 53.9201 56.4456 52.9436 56.4453 51.8786Z" fill="#575E6A"/>
<path d="M58.7888 36.1328C51.8981 36.1328 45.105 36.1328 38.1439 36.1328C38.4585 34.87 38.7467 33.7175 39.0325 32.5645C39.392 31.1142 39.736 29.6599 40.1124 28.214C40.3926 27.1382 40.8792 26.7626 41.9918 26.7612C47.4555 26.7542 52.9192 26.7624 58.3829 26.7535C59.2556 26.7521 59.9483 27.0302 60.1802 27.9223C60.8502 30.4996 61.4811 33.0871 62.1217 35.672C62.1511 35.7905 62.1255 35.9227 62.1255 36.1328C61.0246 36.1328 59.9555 36.1328 58.7888 36.1328Z" fill="#68B1FC"/>
<path d="M39.1805 45.5002C38.0534 45.145 37.5793 44.5256 37.7191 43.6969C37.8613 42.853 38.5053 42.3948 39.5923 42.3835C40.4668 42.3744 41.3418 42.3652 42.2158 42.3868C43.2696 42.4128 43.9489 43.0504 43.9376 43.9621C43.9264 44.872 43.2474 45.4839 42.1807 45.5043C41.2094 45.5229 40.2374 45.5065 39.1805 45.5002Z" fill="#E7E9EC"/>
<path d="M62.6186 43.4956C62.6952 44.8635 62.168 45.4752 60.9362 45.5042C60.0288 45.5256 59.1203 45.523 58.2128 45.5046C57.1441 45.483 56.4638 44.8737 56.4519 43.964C56.4399 43.0514 57.1195 42.4122 58.1742 42.3869C59.0816 42.3652 59.9899 42.3906 60.8977 42.3795C61.6892 42.3698 62.2817 42.6622 62.6186 43.4956Z" fill="#E7E9EC"/>
</g>
<defs>
<clipPath id="clip0_13_65">
<rect width="100" height="100" fill="white"/>
</clipPath>
</defs>
</svg>
