<svg width="461" height="1024" viewBox="0 0 461 1024" fill="none" xmlns="http://www.w3.org/2000/svg">
<g clip-path="url(#clip0_152_12)" filter="url(#filter0_ddddd_152_12)">
<path d="M273.285 514.709C270.362 524.097 265.623 532.425 259.661 540.046C256.457 544.142 252.958 548.014 249.492 551.897C244.191 557.837 238.13 562.956 231.895 567.875C230.794 568.743 229.642 568.785 228.601 567.889C224.388 564.262 220.148 560.665 216.031 556.932C213.496 554.633 211.015 552.239 208.778 549.656C205.35 545.697 201.97 541.67 198.912 537.425C196.261 533.743 193.868 529.832 191.75 525.817C188.47 519.595 186.155 513.009 185.445 505.929C184.615 497.655 185.729 489.712 189.253 482.145C191.152 478.067 193.577 474.352 196.573 470.973C200.237 466.84 204.527 463.581 209.388 461.004C214.291 458.405 219.486 456.81 224.995 456.209C233.715 455.257 242.078 456.541 249.969 460.399C253.679 462.212 257.08 464.513 260.21 467.267C264.668 471.192 268.115 475.854 270.753 481.101C272.802 485.177 274.305 489.505 274.739 494.081C275.065 497.522 275.339 501.006 275.155 504.445C274.995 507.44 274.165 510.4 273.622 513.375C273.545 513.795 273.421 514.206 273.285 514.709ZM196.715 497.124C196.79 500.235 196.549 503.391 196.992 506.449C199.738 525.407 219.087 538.37 237.749 533.882C255.318 529.658 266.209 513.47 263.534 495.556C260.872 477.732 243.509 464.895 225.638 467.538C210.273 469.809 198.744 481.525 196.715 497.124Z" fill="#192959"/>
<path d="M196.721 497.019C198.744 481.525 210.273 469.81 225.638 467.538C243.509 464.895 260.872 477.732 263.534 495.556C266.209 513.47 255.318 529.658 237.749 533.882C219.087 538.37 199.738 525.407 196.992 506.449C196.549 503.391 196.79 500.235 196.721 497.019ZM211.484 514.361C211.485 515.532 211.459 516.704 211.491 517.874C211.549 519.977 213.117 521.545 215.226 521.602C216.474 521.636 217.725 521.635 218.973 521.602C221.143 521.546 222.684 519.972 222.729 517.778C222.754 516.568 222.734 515.358 222.953 514.121C227.88 514.13 232.807 514.139 237.734 514.361C237.735 515.532 237.709 516.704 237.741 517.874C237.799 519.977 239.367 521.545 241.476 521.602C242.724 521.636 243.975 521.635 245.223 521.602C247.393 521.546 248.934 519.972 248.979 517.778C249.004 516.568 248.984 515.358 249.196 514.121C249.509 514.117 249.821 514.111 250.133 514.11C252.142 514.099 252.731 513.524 252.733 511.55C252.737 508.077 252.749 504.603 252.728 501.129C252.714 498.768 251.654 496.984 249.517 495.976C248.772 495.624 248.496 495.134 248.322 494.421C247.545 491.239 246.754 488.06 245.946 484.885C245.211 481.993 243.148 480.368 240.195 480.363C233.56 480.353 226.924 480.353 220.289 480.363C217.325 480.367 215.259 481.986 214.526 484.869C213.699 488.119 212.922 491.382 212.051 494.621C211.923 495.097 211.483 495.626 211.044 495.86C208.872 497.018 207.738 498.762 207.736 501.228C207.732 504.389 207.735 507.551 207.735 510.712C207.735 513.807 207.973 514.053 211.018 514.113C211.174 514.117 211.329 514.136 211.484 514.361Z" fill="#E6E9EE"/>
<path d="M237.734 514.147C232.807 514.139 227.88 514.13 222.734 514.12C218.839 514.128 215.162 514.138 211.484 514.147C211.329 514.136 211.174 514.116 211.018 514.113C207.973 514.053 207.735 513.807 207.735 510.712C207.735 507.551 207.732 504.389 207.736 501.227C207.738 498.762 208.872 497.018 211.044 495.86C211.483 495.626 211.923 495.097 212.051 494.62C212.922 491.382 213.699 488.119 214.526 484.869C215.259 481.986 217.325 480.367 220.289 480.363C226.924 480.353 233.56 480.353 240.195 480.363C243.148 480.368 245.211 481.993 245.946 484.885C246.754 488.06 247.545 491.239 248.322 494.421C248.496 495.134 248.772 495.624 249.517 495.976C251.654 496.984 252.714 498.768 252.728 501.129C252.749 504.603 252.737 508.077 252.733 511.55C252.731 513.524 252.142 514.099 250.133 514.11C249.821 514.111 249.509 514.117 248.981 514.12C245.089 514.128 241.412 514.138 237.734 514.147ZM240.664 495.359C241.947 495.359 243.23 495.359 244.551 495.359C244.551 495.107 244.581 494.949 244.546 494.806C243.777 491.705 243.02 488.6 242.216 485.507C241.938 484.436 241.107 484.103 240.06 484.104C233.503 484.115 226.947 484.105 220.39 484.113C219.055 484.115 218.471 484.566 218.135 485.857C217.683 487.592 217.271 489.337 216.839 491.077C216.496 492.461 216.15 493.844 215.773 495.359C224.126 495.359 232.278 495.359 240.664 495.359ZM217.119 506.607C218.285 506.608 219.451 506.627 220.617 506.605C221.897 506.581 222.712 505.846 222.725 504.755C222.739 503.661 221.924 502.895 220.659 502.864C219.61 502.838 218.56 502.849 217.511 502.86C216.206 502.874 215.434 503.424 215.263 504.436C215.095 505.431 215.664 506.174 217.119 506.607ZM245.111 504.107C244.738 503.195 244.027 502.844 243.077 502.855C241.988 502.869 240.898 502.838 239.809 502.864C238.544 502.895 237.728 503.662 237.742 504.757C237.757 505.848 238.573 506.58 239.855 506.606C240.944 506.628 242.035 506.631 243.123 506.605C244.602 506.57 245.234 505.836 245.111 504.107Z" fill="#FCB860"/>
<path d="M211.484 514.254C215.162 514.138 218.839 514.128 222.625 514.133C222.734 515.358 222.754 516.568 222.729 517.778C222.684 519.972 221.143 521.546 218.973 521.602C217.725 521.635 216.474 521.636 215.226 521.602C213.117 521.545 211.549 519.977 211.491 517.874C211.459 516.704 211.485 515.532 211.484 514.254Z" fill="#575E6A"/>
<path d="M237.734 514.254C241.412 514.138 245.089 514.128 248.875 514.133C248.984 515.358 249.004 516.568 248.979 517.778C248.934 519.972 247.393 521.546 245.223 521.602C243.975 521.635 242.724 521.636 241.476 521.602C239.367 521.545 237.799 519.977 237.741 517.874C237.709 516.704 237.735 515.532 237.734 514.254Z" fill="#575E6A"/>
<path d="M240.547 495.359C232.278 495.359 224.126 495.359 215.773 495.359C216.15 493.844 216.496 492.461 216.839 491.077C217.271 489.337 217.683 487.592 218.135 485.857C218.471 484.566 219.055 484.115 220.39 484.113C226.947 484.105 233.503 484.115 240.06 484.104C241.107 484.103 241.938 484.436 242.216 485.507C243.02 488.6 243.777 491.705 244.546 494.806C244.581 494.949 244.551 495.107 244.551 495.359C243.23 495.359 241.947 495.359 240.547 495.359Z" fill="#68B1FC"/>
<path d="M217.017 506.6C215.664 506.174 215.095 505.431 215.263 504.436C215.434 503.424 216.206 502.874 217.511 502.86C218.56 502.849 219.61 502.838 220.659 502.864C221.924 502.895 222.739 503.661 222.725 504.755C222.712 505.846 221.897 506.581 220.617 506.605C219.451 506.627 218.285 506.608 217.017 506.6Z" fill="#E7E9EC"/>
<path d="M245.142 504.195C245.234 505.836 244.602 506.57 243.124 506.605C242.035 506.631 240.944 506.628 239.855 506.606C238.573 506.58 237.757 505.848 237.742 504.757C237.728 503.662 238.544 502.895 239.809 502.864C240.898 502.838 241.988 502.869 243.077 502.855C244.027 502.844 244.738 503.195 245.142 504.195Z" fill="#E7E9EC"/>
</g>
<defs>
<filter id="filter0_ddddd_152_12" x="152" y="449" width="156" height="185" filterUnits="userSpaceOnUse" color-interpolation-filters="sRGB">
<feFlood flood-opacity="0" result="BackgroundImageFix"/>
<feColorMatrix in="SourceAlpha" type="matrix" values="0 0 0 0 0 0 0 0 0 0 0 0 0 0 0 0 0 0 127 0" result="hardAlpha"/>
<feOffset/>
<feColorMatrix type="matrix" values="0 0 0 0 0 0 0 0 0 0 0 0 0 0 0 0 0 0 0.1 0"/>
<feBlend mode="normal" in2="BackgroundImageFix" result="effect1_dropShadow_152_12"/>
<feColorMatrix in="SourceAlpha" type="matrix" values="0 0 0 0 0 0 0 0 0 0 0 0 0 0 0 0 0 0 127 0" result="hardAlpha"/>
<feOffset dy="3"/>
<feGaussianBlur stdDeviation="3"/>
<feColorMatrix type="matrix" values="0 0 0 0 0 0 0 0 0 0 0 0 0 0 0 0 0 0 0.1 0"/>
<feBlend mode="normal" in2="effect1_dropShadow_152_12" result="effect2_dropShadow_152_12"/>
<feColorMatrix in="SourceAlpha" type="matrix" values="0 0 0 0 0 0 0 0 0 0 0 0 0 0 0 0 0 0 127 0" result="hardAlpha"/>
<feOffset dy="11"/>
<feGaussianBlur stdDeviation="5.5"/>
<feColorMatrix type="matrix" values="0 0 0 0 0 0 0 0 0 0 0 0 0 0 0 0 0 0 0.09 0"/>
<feBlend mode="normal" in2="effect2_dropShadow_152_12" result="effect3_dropShadow_152_12"/>
<feColorMatrix in="SourceAlpha" type="matrix" values="0 0 0 0 0 0 0 0 0 0 0 0 0 0 0 0 0 0 127 0" result="hardAlpha"/>
<feOffset dy="25"/>
<feGaussianBlur stdDeviation="7.5"/>
<feColorMatrix type="matrix" values="0 0 0 0 0 0 0 0 0 0 0 0 0 0 0 0 0 0 0.05 0"/>
<feBlend mode="normal" in2="effect3_dropShadow_152_12" result="effect4_dropShadow_152_12"/>
<feColorMatrix in="SourceAlpha" type="matrix" values="0 0 0 0 0 0 0 0 0 0 0 0 0 0 0 0 0 0 127 0" result="hardAlpha"/>
<feOffset dy="44"/>
<feGaussianBlur stdDeviation="9"/>
<feColorMatrix type="matrix" values="0 0 0 0 0 0 0 0 0 0 0 0 0 0 0 0 0 0 0.01 0"/>
<feBlend mode="normal" in2="effect4_dropShadow_152_12" result="effect5_dropShadow_152_12"/>
<feBlend mode="normal" in="SourceGraphic" in2="effect5_dropShadow_152_12" result="shape"/>
</filter>
<clipPath id="clip0_152_12">
<rect width="120" height="120" fill="white" transform="translate(170 452)"/>
</clipPath>
</defs>
</svg>
